HIERARCHY
ROOT Hips
{
  OFFSET 5.80788e-005 67.184 3.4734
  CHANNELS 6 Xposition Yposition Zposition Zrotation Xrotation Yrotation
  JOINT Chest
  {
    OFFSET 0 8.7983 -4.7612
    CHANNELS 6 Xposition Yposition Zposition Zrotation Xrotation Yrotation
    JOINT Chest2
    {
      OFFSET 0 8.0291 0.4195
      CHANNELS 6 Xposition Yposition Zposition Zrotation Xrotation Yrotation
      JOINT Chest3
      {
        OFFSET 0 9.9351 -2.2114
        CHANNELS 6 Xposition Yposition Zposition Zrotation Xrotation Yrotation
        JOINT Neck
        {
          OFFSET 0 22.3885 -0.4656
          CHANNELS 6 Xposition Yposition Zposition Zrotation Xrotation Yrotation
          JOINT Head
          {
            OFFSET -0.0001 12.643 3.4389
            CHANNELS 6 Xposition Yposition Zposition Zrotation Xrotation Yrotation
            End Site
            {
              OFFSET 0.0001 17.6655 0.5274
            }
          }
        }
        JOINT LeftCollar
        {
          OFFSET 2.2603 21.606 7.4023
          CHANNELS 6 Xposition Yposition Zposition Zrotation Xrotation Yrotation
          JOINT LeftShoulder
          {
            OFFSET 13.5163 -1.1332 -5.0146
            CHANNELS 6 Xposition Yposition Zposition Zrotation Xrotation Yrotation
            JOINT LeftElbow
            {
              OFFSET -0.0995 -28.05 -0.2431
              CHANNELS 6 Xposition Yposition Zposition Zrotation Xrotation Yrotation
              JOINT LeftWrist
              {
                OFFSET 0.0679 -23.3996 -0.1402
                CHANNELS 6 Xposition Yposition Zposition Zrotation Xrotation Yrotation
                JOINT LeftFinger1
                {
                  OFFSET 0.7932 -9.069 2.5189
                  CHANNELS 6 Xposition Yposition Zposition Zrotation Xrotation Yrotation
                  JOINT LeftFinger11
                  {
                    OFFSET -0.8272 -3.3923 0.5977
                    CHANNELS 6 Xposition Yposition Zposition Zrotation Xrotation Yrotation
                    JOINT LeftFinger12
                    {
                      OFFSET -0.5649 -2.3158 0.4082
                      CHANNELS 6 Xposition Yposition Zposition Zrotation Xrotation Yrotation
                      End Site
                      {
                        OFFSET -0.4919 -1.6479 0.2673
                      }
                    }
                  }
                }
                JOINT LeftFinger2
                {
                  OFFSET 0.9159 -9.2044 0.2193
                  CHANNELS 6 Xposition Yposition Zposition Zrotation Xrotation Yrotation
                  JOINT LeftFinger21
                  {
                    OFFSET 0.0117 -4.1944 -0.0248
                    CHANNELS 6 Xposition Yposition Zposition Zrotation Xrotation Yrotation
                    JOINT LeftFinger22
                    {
                      OFFSET 0.0071 -2.3249 -0.0142
                      CHANNELS 6 Xposition Yposition Zposition Zrotation Xrotation Yrotation
                      End Site
                      {
                        OFFSET -0.1475 -2.0882 0.0028
                      }
                    }
                  }
                }
                JOINT LeftFinger3
                {
                  OFFSET 0.6113 -8.7231 -2.0637
                  CHANNELS 6 Xposition Yposition Zposition Zrotation Xrotation Yrotation
                  JOINT LeftFinger31
                  {
                    OFFSET -0.1927 -3.8059 -0.2383
                    CHANNELS 6 Xposition Yposition Zposition Zrotation Xrotation Yrotation
                    JOINT LeftFinger32
                    {
                      OFFSET -0.1091 -2.1688 -0.1362
                      CHANNELS 6 Xposition Yposition Zposition Zrotation Xrotation Yrotation
                      End Site
                      {
                        OFFSET -0.2358 -1.9176 -0.0906
                      }
                    }
                  }
                }
                JOINT LeftFinger4
                {
                  OFFSET -0.6151 -8.0947 -3.5641
                  CHANNELS 6 Xposition Yposition Zposition Zrotation Xrotation Yrotation
                  JOINT LeftFinger41
                  {
                    OFFSET -0.4882 -2.341 -0.6462
                    CHANNELS 6 Xposition Yposition Zposition Zrotation Xrotation Yrotation
                    JOINT LeftFinger42
                    {
                      OFFSET -0.3575 -1.7167 -0.4742
                      CHANNELS 6 Xposition Yposition Zposition Zrotation Xrotation Yrotation
                      End Site
                      {
                        OFFSET -0.4187 -1.5237 -0.3496
                      }
                    }
                  }
                }
                JOINT LeftFinger0
                {
                  OFFSET -1.42 -1.8761 1.4223
                  CHANNELS 6 Xposition Yposition Zposition Zrotation Xrotation Yrotation
                  JOINT LeftFinger01
                  {
                    OFFSET -1.1471 -3.4929 2.6334
                    CHANNELS 6 Xposition Yposition Zposition Zrotation Xrotation Yrotation
                    JOINT LeftFinger02
                    {
                      OFFSET -0.823 -2.3 1.6571
                      CHANNELS 6 Xposition Yposition Zposition Zrotation Xrotation Yrotation
                      End Site
                      {
                        OFFSET -0.5822 -1.6914 1.1582
                      }
                    }
                  }
                }
              }
            }
          }
        }
        JOINT RightCollar
        {
          OFFSET -2.2603 21.606 7.4023
          CHANNELS 6 Xposition Yposition Zposition Zrotation Xrotation Yrotation
          JOINT RightShoulder
          {
            OFFSET -13.5187 -1.1334 -5.0155
            CHANNELS 6 Xposition Yposition Zposition Zrotation Xrotation Yrotation
            JOINT RightElbow
            {
              OFFSET 0.0994 -28.0499 -0.2431
              CHANNELS 6 Xposition Yposition Zposition Zrotation Xrotation Yrotation
              JOINT RightWrist
              {
                OFFSET -0.0679 -23.3996 -0.1402
                CHANNELS 6 Xposition Yposition Zposition Zrotation Xrotation Yrotation
                JOINT RightFinger1
                {
                  OFFSET -0.7932 -9.0691 2.5189
                  CHANNELS 6 Xposition Yposition Zposition Zrotation Xrotation Yrotation
                  JOINT RightFinger11
                  {
                    OFFSET 0.8272 -3.3923 0.5977
                    CHANNELS 6 Xposition Yposition Zposition Zrotation Xrotation Yrotation
                    JOINT RightFinger12
                    {
                      OFFSET 0.565 -2.3158 0.4082
                      CHANNELS 6 Xposition Yposition Zposition Zrotation Xrotation Yrotation
                      End Site
                      {
                        OFFSET 0.4919 -1.6479 0.2673
                      }
                    }
                  }
                }
                JOINT RightFinger2
                {
                  OFFSET -0.916 -9.2044 0.2193
                  CHANNELS 6 Xposition Yposition Zposition Zrotation Xrotation Yrotation
                  JOINT RightFinger21
                  {
                    OFFSET -0.0117 -4.1944 -0.0248
                    CHANNELS 6 Xposition Yposition Zposition Zrotation Xrotation Yrotation
                    JOINT RightFinger22
                    {
                      OFFSET -0.0071 -2.3249 -0.0142
                      CHANNELS 6 Xposition Yposition Zposition Zrotation Xrotation Yrotation
                      End Site
                      {
                        OFFSET 0.1475 -2.0882 0.0028
                      }
                    }
                  }
                }
                JOINT RightFinger3
                {
                  OFFSET -0.6113 -8.7231 -2.0637
                  CHANNELS 6 Xposition Yposition Zposition Zrotation Xrotation Yrotation
                  JOINT RightFinger31
                  {
                    OFFSET 0.1927 -3.8059 -0.2383
                    CHANNELS 6 Xposition Yposition Zposition Zrotation Xrotation Yrotation
                    JOINT RightFinger32
                    {
                      OFFSET 0.1091 -2.1688 -0.1362
                      CHANNELS 6 Xposition Yposition Zposition Zrotation Xrotation Yrotation
                      End Site
                      {
                        OFFSET 0.2358 -1.9176 -0.0906
                      }
                    }
                  }
                }
                JOINT RightFinger4
                {
                  OFFSET 0.6151 -8.0947 -3.564
                  CHANNELS 6 Xposition Yposition Zposition Zrotation Xrotation Yrotation
                  JOINT RightFinger41
                  {
                    OFFSET 0.4882 -2.341 -0.6462
                    CHANNELS 6 Xposition Yposition Zposition Zrotation Xrotation Yrotation
                    JOINT RightFinger42
                    {
                      OFFSET 0.3574 -1.7166 -0.4742
                      CHANNELS 6 Xposition Yposition Zposition Zrotation Xrotation Yrotation
                      End Site
                      {
                        OFFSET 0.4187 -1.5237 -0.3496
                      }
                    }
                  }
                }
                JOINT RightFinger0
                {
                  OFFSET 1.4199 -1.8761 1.4221
                  CHANNELS 6 Xposition Yposition Zposition Zrotation Xrotation Yrotation
                  JOINT RightFinger01
                  {
                    OFFSET 1.1472 -3.4929 2.6336
                    CHANNELS 6 Xposition Yposition Zposition Zrotation Xrotation Yrotation
                    JOINT RightFinger02
                    {
                      OFFSET 0.8229 -2.3 1.6571
                      CHANNELS 6 Xposition Yposition Zposition Zrotation Xrotation Yrotation
                      End Site
                      {
                        OFFSET 0.5822 -1.6914 1.1582
                      }
                    }
                  }
                }
              }
            }
          }
        }
      }
    }
  }
  JOINT RightHip
  {
    OFFSET -9.412 3.9771 -0.7758
    CHANNELS 6 Xposition Yposition Zposition Zrotation Xrotation Yrotation
    JOINT RightKnee
    {
      OFFSET -0.7531 -40.938 0
      CHANNELS 6 Xposition Yposition Zposition Zrotation Xrotation Yrotation
      JOINT RightAnkle
      {
        OFFSET 0 -40.1986 0
        CHANNELS 6 Xposition Yposition Zposition Zrotation Xrotation Yrotation
        JOINT RightToe
        {
          OFFSET 0 -4.4182 9.239
          CHANNELS 6 Xposition Yposition Zposition Zrotation Xrotation Yrotation
          End Site
          {
            OFFSET 0 0 6.1981
          }
        }
      }
    }
  }
  JOINT LeftHip
  {
    OFFSET 9.4119 3.9773 -0.7758
    CHANNELS 6 Xposition Yposition Zposition Zrotation Xrotation Yrotation
    JOINT LeftKnee
    {
      OFFSET 0.7532 -40.9383 0
      CHANNELS 6 Xposition Yposition Zposition Zrotation Xrotation Yrotation
      JOINT LeftAnkle
      {
        OFFSET 0 -40.1986 0
        CHANNELS 6 Xposition Yposition Zposition Zrotation Xrotation Yrotation
        JOINT LeftToe
        {
          OFFSET 0 -4.4182 9.239
          CHANNELS 6 Xposition Yposition Zposition Zrotation Xrotation Yrotation
          End Site
          {
            OFFSET 0 0 6.1981
          }
        }
      }
    }
  }
}
MOTION
Frames:	4
Frame Time:	0.0333333
5.80788e-005 67.184 3.4734 0 0 -0 0 8.7983 -4.7612 0 0 -0 0 8.0291 0.4195 0 0 -0 0 9.9351 -2.2114 0 0 -0 0 22.3885 -0.4656 0 0 -0 -0.0001 12.643 3.4389 0 0 -0 2.2603 21.606 7.4023 0 0 -12.5014 13.5163 -1.1332 -5.0146 88.1196 14.2451 10.6914 -0.0995 -28.05 -0.2431 -0.00160068 -0.00239207 0.000740045 0.0679 -23.3996 -0.1402 -8.4365e-005 7.00714e-005 -9.52055e-007 0.7932 -9.069 2.5189 9.93923e-017 -1.98785e-016 -1.59028e-015 -0.8272 -3.3923 0.5977 9.93923e-017 -5.96354e-016 -1.59028e-015 -0.5649 -2.3158 0.4082 -9.93923e-017 -5.96354e-016 -1.59028e-015 0.9159 -9.2044 0.2193 9.93923e-017 -1.98785e-016 -1.59028e-015 0.0117 -4.1944 -0.0248 -0.0128176 0.00232552 8.52707e-005 0.0071 -2.3249 -0.0142 9.93923e-017 5.96354e-016 -0 0.6113 -8.7231 -2.0637 9.93923e-017 -1.98785e-016 -1.59028e-015 -0.1927 -3.8059 -0.2383 -0.0160551 0.00299681 0.000857156 -0.1091 -2.1688 -0.1362 -2.48481e-016 0 3.18055e-015 -0.6151 -8.0947 -3.5641 9.93923e-017 -1.98785e-016 -1.59028e-015 -0.4882 -2.341 -0.6462 -0.0125865 0.0031206 0.00282719 -0.3575 -1.7167 -0.4742 0 1.98785e-016 -0 -1.42 -1.8761 1.4223 9.93923e-017 -1.98785e-016 -1.59028e-015 -1.1471 -3.4929 2.6334 9.93923e-017 -5.96354e-016 -1.59028e-015 -0.823 -2.3 1.6571 -9.93923e-017 -5.96354e-016 -1.59028e-015 -2.2603 21.606 7.4023 -0.865644 0.16582 7.03859 -13.5187 -1.1334 -5.0155 -88.0329 10.2057 -10.5567 0.0994 -28.0499 -0.2431 0.0015593 -0.00248883 -0.000788628 -0.0679 -23.3996 -0.1402 7.87605e-005 4.10553e-005 1.24965e-005 -0.7932 -9.0691 2.5189 -3.97569e-016 -7.95139e-016 3.18055e-015 0.8272 -3.3923 0.5977 -1.98785e-016 -3.97569e-016 3.18055e-015 0.565 -2.3158 0.4082 -1.98785e-016 0 3.18055e-015 -0.916 -9.2044 0.2193 -3.97569e-016 -7.95139e-016 3.18055e-015 -0.0117 -4.1944 -0.0248 0.0129473 0.00231697 -8.70038e-005 -0.0071 -2.3249 -0.0142 9.93923e-017 -7.95139e-016 1.59028e-015 -0.6113 -8.7231 -2.0637 -3.97569e-016 -7.95139e-016 3.18055e-015 0.1927 -3.8059 -0.2383 0.0163314 0.00303369 -0.000872333 0.1091 -2.1688 -0.1362 3.97569e-016 7.95139e-016 -3.18055e-015 0.6151 -8.0947 -3.564 -3.97569e-016 -7.95139e-016 3.18055e-015 0.4882 -2.341 -0.6462 0.0145763 0.00367772 -0.00326275 0.3574 -1.7166 -0.4742 9.93923e-017 -3.97569e-016 -0 1.4199 -1.8761 1.4221 -3.97569e-016 -7.95139e-016 3.18055e-015 1.1472 -3.4929 2.6336 -1.98785e-016 -3.97569e-016 3.18055e-015 0.8229 -2.3 1.6571 -1.98785e-016 0 3.18055e-015 -9.412 3.9771 -0.7758 3.42485 1.36937 -0.0640303 -0.7531 -40.938 0 0.000136572 0.69354 0.00145564 1.77636e-015 -40.1986 -1.11022e-016 -3.42573 -2.06297 -0.0607933 8.88178e-016 -4.4182 9.239 -3.19502e-024 0 -1.48106e-024 9.4119 3.9773 -0.7758 -3.42498 1.36123 0.0639712 0.7532 -40.9383 2.22045e-016 -6.769e-005 0.712612 -0.0012277 8.88179e-016 -40.1986 0 3.42582 -2.07388 0.0612819 -8.88178e-016 -4.4182 9.239 2.55305e-023 0 -2.31416e-026 
2.80469e-005 19.6968 8.84523 4.004e-008 -66.6681 2.07736e-007 0 8.7983 -4.7612 1.08833 0.282656 0.134237 0 8.0291 0.4195 2.17605 0.567807 0.263087 0 9.9351 -2.2114 2.17605 0.567815 0.263086 2.22045e-016 22.3885 -0.4656 0.00912653 1.715 -0.480037 -0.0001 12.643 3.4389 1.22785e-007 23.115 4.14548e-007 2.2603 21.606 7.4023 -6.20068 -0.154049 -12.5088 13.5163 -1.1332 -5.0146 86.7076 -13.2849 18.372 -0.0995 -28.05 -0.2431 -61.8092 -41.4833 -13.6247 0.0679 -23.3996 -0.1402 -32.1764 5.79891 0.650851 0.7932 -9.069 2.5189 0 3.18055e-015 -0 -0.8272 -3.3923 0.5977 4.19459e-006 8.77483e-006 3.92911e-006 -0.5649 -2.3158 0.4082 -7.69774e-006 -8.48999e-006 -1.54059e-005 0.915901 -9.2044 0.2193 0 3.18055e-015 -0 0.0117 -4.1944 -0.0248 -0.0128297 0.00233957 8.62354e-005 0.0071 -2.3249 -0.0142 -3.57386e-006 -3.94834e-006 -3.60012e-006 0.6113 -8.7231 -2.0637 0 3.18055e-015 -0 -0.1927 -3.8059 -0.2383 -0.0160282 0.00299876 0.000852902 -0.1091 -2.1688 -0.1362 -4.59514e-006 -2.28973e-006 2.21993e-006 -0.6151 -8.0947 -3.5641 0 3.18055e-015 -0 -0.4882 -2.341 -0.6462 -0.012613 0.00312918 0.00282764 -0.3575 -1.7167 -0.4742 4.50631e-006 -1.88082e-006 -3.89659e-006 -1.42 -1.8761 1.4223 0 3.18055e-015 -0 -1.1471 -3.4929 2.6334 4.19459e-006 8.77483e-006 3.92911e-006 -0.823001 -2.3 1.6571 -7.69774e-006 -8.48999e-006 -1.54059e-005 -2.2603 21.606 7.4023 11.6526 0.0949103 13.1934 -13.5187 -1.1334 -5.0155 -74.5591 -6.75855 -19.2449 0.0994 -28.0499 -0.2431 47.6205 -15.8437 -0.38988 -0.0679 -23.3996 -0.1402 31.2996 5.95616 13.0938 -0.793201 -9.0691 2.5189 -3.18055e-015 -1.59028e-015 -3.18055e-015 0.827201 -3.3923 0.5977 -3.18055e-015 -1.59028e-015 -6.36111e-015 0.565 -2.3158 0.4082 0 0 -1.59028e-015 -0.916001 -9.2044 0.2193 -3.18055e-015 -1.59028e-015 -3.18055e-015 -0.0117 -4.1944 -0.0248 0.0129023 0.00230802 -8.64834e-005 -0.0071 -2.3249 -0.0142 -3.18055e-015 1.43125e-014 -0 -0.6113 -8.7231 -2.0637 -3.18055e-015 -1.59028e-015 -3.18055e-015 0.1927 -3.8059 -0.2383 0.0162717 0.00303936 -0.000864682 0.1091 -2.1688 -0.1362 -3.18055e-015 -4.77083e-015 -7.95139e-016 0.615101 -8.0947 -3.564 -3.18055e-015 -1.59028e-015 -3.18055e-015 0.4882 -2.341 -0.6462 0.0145801 0.0036716 -0.00325668 0.3574 -1.7166 -0.4742 -6.36111e-015 1.59028e-015 3.97569e-015 1.4199 -1.8761 1.4221 -3.18055e-015 -1.59028e-015 -3.18055e-015 1.1472 -3.4929 2.6336 -3.18055e-015 -1.59028e-015 -6.36111e-015 0.822901 -2.3 1.6571 0 0 -1.59028e-015 -9.412 3.9771 -0.7758 -4.83788 -14.3923 -3.27876 -0.7531 -40.938 7.10543e-015 2.66531 40.244 -3.00372 0 -40.1986 7.10543e-015 -3.88947 18.2081 2.02166 -8.88179e-016 -4.4182 9.239 1.03041e-007 -3.6546e-006 -1.88126e-008 9.4119 3.9773 -0.7758 4.83513 -14.3923 3.27566 0.7532 -40.9383 0 -2.66844 40.2443 3.00253 0 -40.1986 -7.10543e-015 3.88769 18.2078 -2.02392 0 -4.4182 9.239 1.21055e-007 4.74278e-006 2.88284e-007 
2.33238e-005 -0.915878 7.69414 -180 -83.3313 -180 0 8.7983 -4.7612 1.57709 0.401732 0.199739 3.46945e-017 8.0291 0.4195 3.15289 0.808785 0.388362 -2.22045e-016 9.9351 -2.2114 3.15289 0.808781 0.388361 0 22.3885 -0.4656 -0.0539 3.41617 -0.942721 -0.0001 12.643 3.4389 -5.99892e-007 32.7611 -6.05021e-007 2.2603 21.606 7.4023 -8.99089 -0.223281 -12.5121 13.5163 -1.1332 -5.0146 85.7814 -25.7839 21.6061 -0.0995 -28.05 -0.2431 -87.8029 -62.4467 -19.1434 0.0679 -23.3996 -0.1402 -46.4913 8.05763 1.9438 0.7932 -9.069 2.5189 1.59028e-015 0 -0 -0.8272 -3.3923 0.5977 1.24549e-006 -1.18418e-006 -3.10183e-006 -0.5649 -2.3158 0.4082 -2.38542e-015 -1.27222e-014 1.59028e-015 0.9159 -9.2044 0.2193 1.59028e-015 0 -0 0.0117 -4.1944 -0.0248 -0.012811 0.0023229 8.98698e-005 0.0071 -2.3249 -0.0142 -3.11442e-007 -4.03254e-007 7.75445e-007 0.6113 -8.7231 -2.0637 1.59028e-015 0 -0 -0.1927 -3.8059 -0.2383 -0.0160311 0.00299122 0.000859318 -0.1091 -2.1688 -0.1362 3.97569e-015 -3.18055e-015 1.59028e-015 -0.6151 -8.0947 -3.5641 1.59028e-015 0 -0 -0.4882 -2.341 -0.6462 -0.0125487 0.00311618 0.00282133 -0.3575 -1.7167 -0.4742 7.95139e-016 6.36111e-015 -1.59028e-015 -1.42 -1.8761 1.4223 1.59028e-015 0 -0 -1.1471 -3.4929 2.6334 1.24549e-006 -1.18418e-006 -3.10183e-006 -0.823 -2.3 1.6571 -2.38542e-015 -1.27222e-014 1.59028e-015 -2.2603 21.606 7.4023 17.2876 0.0625136 15.9631 -13.5187 -1.1334 -5.0155 -68.549 -14.3875 -23.196 0.0994 -28.0499 -0.2431 68.2264 -24.332 -1.81118 -0.0679 -23.3996 -0.1402 45.4997 8.43385 17.9546 -0.7932 -9.0691 2.5189 1.98785e-016 0 -3.18055e-015 0.8272 -3.3923 0.5977 3.97569e-016 1.59028e-015 -3.18055e-015 0.565 -2.3158 0.4082 -2.78299e-015 7.95139e-016 -6.36111e-015 -0.916 -9.2044 0.2193 1.98785e-016 0 -3.18055e-015 -0.0117 -4.1944 -0.0248 0.0129728 0.00232135 -8.60608e-005 -0.0071 -2.3249 -0.0142 -1.41287e-005 -1.72817e-006 3.35627e-009 -0.6113 -8.7231 -2.0637 1.98785e-016 0 -3.18055e-015 0.1927 -3.8059 -0.2383 0.0163619 0.00304151 -0.000874955 0.1091 -2.1688 -0.1362 0 0 -3.18055e-015 0.6151 -8.0947 -3.564 1.98785e-016 0 -3.18055e-015 0.4882 -2.341 -0.6462 0.0146101 0.0036856 -0.00326618 0.3574 -1.7166 -0.4742 7.95139e-016 1.59028e-015 -0 1.4199 -1.8761 1.4221 1.98785e-016 0 -3.18055e-015 1.1472 -3.4929 2.6336 3.97569e-016 1.59028e-015 -3.18055e-015 0.8229 -2.3 1.6571 -2.78299e-015 7.95139e-016 -6.36111e-015 -9.412 3.9771 -0.7758 -8.99297 -21.2091 -4.92929 -0.7531 -40.938 8.88178e-016 5.1577 57.4456 -5.52405 0 -40.1986 -7.10543e-015 -4.66099 27.6317 3.22988 3.55271e-015 -4.4182 9.239 -0 -1.59028e-014 -0 9.4119 3.9773 -0.7758 8.98838 -21.2097 4.92457 0.7532 -40.9383 8.88178e-016 -5.16111 57.4463 5.52178 3.55271e-015 -40.1986 0 4.65901 27.6316 -3.2335 -3.55271e-015 -4.4182 9.239 3.58564e-007 -2.91713e-006 -2.29984e-007 
2.62053e-005 3.72678 8.14748 179.974 -89.9981 179.974 0 8.7983 -4.7612 1.46855 0.375713 0.184912 -3.46945e-018 8.0291 0.4195 2.93597 0.75603 0.360145 0 9.9351 -2.2114 2.93597 0.756033 0.360144 0 22.3885 -0.4656 -0.194727 5.10527 -1.38817 -0.0001 12.643 3.4389 1.43212e-007 28.9373 -2.42053e-007 2.2603 21.606 7.4023 -8.37091 -0.207934 -12.5113 13.5163 -1.1332 -5.0146 85.4903 -23.2247 20.5904 -0.0995 -28.05 -0.2431 -82.6137 -58.0287 -19.0919 0.0679 -23.3996 -0.1402 -42.6353 7.48387 1.54022 0.7932 -9.069 2.5189 -8.18012e-007 2.70264e-006 1.48859e-006 -0.8272 -3.3923 0.5977 -7.95139e-016 9.54166e-015 -1.59028e-015 -0.5649 -2.3158 0.4082 7.95139e-016 0 -0 0.9159 -9.2044 0.2193 -8.18012e-007 2.70264e-006 1.48859e-006 0.0117 -4.1944 -0.0248 -0.0128607 0.00233572 8.11542e-005 0.0071 -2.3249 -0.0142 2.78617e-006 4.74127e-006 2.29936e-006 0.6113 -8.7231 -2.0637 -8.18012e-007 2.70264e-006 1.48859e-006 -0.1927 -3.8059 -0.2383 -0.0160352 0.00299761 0.000856873 -0.1091 -2.1688 -0.1362 1.19271e-015 -6.36111e-015 -2.38542e-015 -0.6151 -8.0947 -3.5641 -8.18012e-007 2.70264e-006 1.48859e-006 -0.4882 -2.341 -0.6462 -0.0125797 0.00311995 0.0028227 -0.3575 -1.7167 -0.4742 1.19271e-015 3.18055e-015 -2.38542e-015 -1.42 -1.8761 1.4223 -8.18012e-007 2.70264e-006 1.48859e-006 -1.1471 -3.4929 2.6334 -7.95139e-016 9.54166e-015 -1.59028e-015 -0.823 -2.3 1.6571 7.95139e-016 0 -0 -2.2603 21.606 7.4023 16.0352 0.0697176 15.3476 -13.5187 -1.1334 -5.0155 -69.3622 -12.3792 -22.5122 0.0994 -28.0499 -0.2431 63.8296 -23.6023 -0.311705 -0.0679 -23.3996 -0.1402 42.333 7.90789 16.9279 -0.7932 -9.0691 2.5189 4.77083e-015 1.59028e-015 -6.36111e-015 0.8272 -3.3923 0.5977 2.38542e-015 7.95139e-015 -3.18055e-015 0.565 -2.3158 0.4082 5.56597e-015 4.77083e-015 -3.18055e-015 -0.916 -9.2044 0.2193 4.77083e-015 1.59028e-015 -6.36111e-015 -0.0117 -4.1944 -0.0248 0.0129977 0.00232203 -7.93419e-005 -0.0071 -2.3249 -0.0142 -4.77083e-015 3.18055e-015 3.18055e-015 -0.6113 -8.7231 -2.0637 4.77083e-015 1.59028e-015 -6.36111e-015 0.1927 -3.8059 -0.2383 0.0162476 0.00301725 -0.000866148 0.1091 -2.1688 -0.1362 4.77083e-015 -1.59028e-015 -3.18055e-015 0.6151 -8.0947 -3.564 4.77083e-015 1.59028e-015 -6.36111e-015 0.4882 -2.341 -0.6462 0.0146078 0.0036823 -0.00326567 0.3574 -1.7166 -0.4742 7.95139e-016 1.59028e-015 -3.18055e-015 1.4199 -1.8761 1.4221 4.77083e-015 1.59028e-015 -6.36111e-015 1.1472 -3.4929 2.6336 2.38542e-015 7.95139e-015 -3.18055e-015 0.8229 -2.3 1.6571 5.56597e-015 4.77083e-015 -3.18055e-015 -9.412 3.9771 -0.7758 -8.03798 -19.6934 -4.54448 -0.7531 -40.938 -1.33227e-015 4.43475 53.6318 -4.80449 -3.55271e-015 -40.1986 0 -4.44826 25.5314 2.93785 0 -4.4182 9.239 -7.48078e-007 9.88226e-006 -1.86527e-007 9.4119 3.9773 -0.7758 8.03384 -19.6941 4.54015 0.7532 -40.9383 2.22045e-016 -4.43823 53.6328 4.80259 1.77636e-015 -40.1986 0 4.44629 25.5313 -2.94114 -3.55271e-015 -4.4182 9.239 2.16845e-007 2.92636e-006 3.64857e-007 
